<svg xmlns="http://www.w3.org/2000/svg" version="1.1" xmlns:xlink="http://www.w3.org/1999/xlink" xmlns:svgjs="http://svgjs.dev/svgjs" width="1000" height="1125" viewBox="0 0 1000 1125"><g transform="matrix(1,0,0,1,1.7053025658242404e-13,0)"><svg viewBox="0 0 320 360" data-background-color="#111111" preserveAspectRatio="xMidYMid meet" height="1125" width="1000" xmlns="http://www.w3.org/2000/svg" xmlns:xlink="http://www.w3.org/1999/xlink"><g id="tight-bounds" transform="matrix(1,0,0,1,0,0)"><svg viewBox="0 0 320 360" height="360" width="320"><g><svg></svg></g><g><svg viewBox="0 0 320 360" height="360" width="320"><g><path xmlns="http://www.w3.org/2000/svg" d="M20.961 227.22l3.726 4.658-1.863-6.056c-0.466-2.795-3.726 0.466-1.863 1.398M25.153 224.425c1.397 2.329 2.795 4.658 2.795 6.987 0 3.261 2.795 4.658 5.123 5.589-3.261-3.726-5.124-13.974-7.918-12.576M204.017 26.929c7.918 0 15.371-0.932 23.756 0.931 20.495 5.124 37.729 15.371 49.374 29.811l32.606 52.169c1.397 13.042 4.192 27.482 3.726 43.319 3.261 0 2.795-4.658 6.521-5.59-3.726 9.316-5.59 20.961-6.521 34.469-2.329-7.453 0-18.632 0.466-24.687-3.261 5.124-5.124 1.397-5.124-0.932 0.466-3.726-1.397-3.261-2.795-4.658-5.124-4.658-8.384-9.782-12.11-17.7 2.329-6.055 2.795-14.905-4.658-19.563-2.329-1.397-5.124-3.726-6.521-7.453-1.863-5.124-5.124-11.179-4.193-19.097 0.466-2.329-6.987 5.124-11.179 1.863-18.166-12.576-36.332-27.016-58.224-39.127-11.645 0-20.029-4.192-24.221-9.316-3.726-4.658-0.932-10.713 4.658-11.179 3.261 0 6.987-0.932 9.782 0.932 0.466-1.863 2.329-4.192 4.657-4.192M157.904 16.215l0.932 0.466c4.658 0.932 6.987 7.453 12.11 5.124 0 3.261 0.466 6.521-0.466 8.85-1.397 3.726-5.59 3.726-8.85 3.726-31.208-1.863-49.374 11.179-68.471 22.358-5.124 3.261-10.713 5.59-14.906 9.782-20.029 18.632-41.921 35.866-47.045 70.335l-4.192 38.195c-0.466 4.192-5.124 8.384-4.192 13.508l3.26 22.824c-3.261-3.261-5.124 0.932-4.192 2.795 0.466 1.397 2.329 6.055 5.124 1.863 3.726 6.987 7.453 20.495 12.576 26.55 15.837 18.632 36.332 35.4 53.101 52.169 4.192-0.932 7.453-0.932 8.384-3.727 1.397 2.795-1.397 5.59-3.726 6.056 7.453 4.658 15.837 8.85 27.016 9.781 14.44 0.932 27.948 3.261 40.524 6.522 6.521-1.863 13.042-2.795 20.029-3.261 2.329 0 3.726-3.726 6.521-4.658l0.466-4.658c2.795 4.192 2.329-1.397 0.466-4.192 3.261 2.795 4.192 5.124 5.589 6.987 0-1.397 3.726-6.521 3.727-0.466l0.931-6.055c1.397-0.932 1.863 5.124 3.261 0.931 1.397-4.192 4.192-0.932 6.987-2.329-0.932 1.863-0.466 5.59 2.794 3.261l3.727-3.261c2.329 5.59 6.055 3.261 7.918 2.329 20.495-13.042 40.99-28.413 60.553-43.784l-0.466 6.055 2.329-7.453c2.329 2.329 4.192 0.466 5.124-0.931 2.795-4.658 6.521-9.316 12.577-13.508-7.453 20.029-16.303 35.866-27.482 48.908l-4.658 5.59c0 3.261-0.932 7.453-4.658 7.918-1.863 0.466-5.59-0.932-8.384 1.863-1.397 1.863 3.261 5.59-0.466 2.795-3.261-2.329-6.521 0-10.248 0.932-2.795 0.932 1.863 3.726 2.795 5.589 0.932 1.863 1.863 3.726 1.398 6.056l-5.124-5.59c-6.055 3.261-9.782 9.316-14.906 13.974-2.329 1.863-1.397 5.124-1.397 7.918-3.261 0-6.987-0.932-8.85 0.932-1.397 1.863-0.932 4.658-0.932 7.453-4.658-0.466-5.124-7.453-9.315-6.056-4.192 0.932-8.85 1.397-12.577 3.727 2.795 5.59-4.658 2.329-3.726 3.26-6.987-4.192-13.042-7.453-20.495-4.658-15.837-5.124-35.4-2.795-49.84-0.931 0-2.329 0.466-4.658-0.466-5.124-0.932 2.329-3.726 1.397-3.26 1.397-8.85-6.055-17.7-9.782-27.016-14.905-8.384 0.932-16.303-3.261-18.632-5.59-6.521-6.055-13.974-2.795-20.029-4.192-13.042-3.261-17.7-16.769-19.098-26.084-0.932-4.658-4.658-6.521-6.055-6.056-6.055-19.563-15.371-37.263-22.824-55.429-1.863-4.658-1.397-9.316-1.397-14.44 2.329 0.932 4.658 0.466 4.192-2.794-2.329-15.371-7.918-27.016-13.974-38.195 3.261-15.837 3.726-34.469 11.179-48.443 6.521-12.576 18.632-19.098 27.016-29.811 2.795-3.726 2.795-8.85 5.59-12.11 9.316-9.316 18.632-19.098 28.879-27.482 4.658-3.726 10.247 0 17.234-1.397 2.329-8.384 11.645-15.837 20.495-13.508 3.726 0.932 11.179-8.85 13.508-9.782 3.726-1.397 1.863 3.726 1.863 6.987 8.85-6.987 20.961-10.713 32.14-14.906" fill="#c80e02" fill-rule="nonzero" stroke="none" stroke-width="1" stroke-linecap="butt" stroke-linejoin="miter" stroke-miterlimit="10" stroke-dasharray="" stroke-dashoffset="0" font-family="none" font-weight="none" font-size="none" text-anchor="none" style="mix-blend-mode: normal" data-fill-palette-color="tertiary"></path></g><g transform="matrix(1,0,0,1,64,108.54901564433312)"><svg viewBox="0 0 192 142.90196871133375" height="142.90196871133375" width="192"><g><svg viewBox="0 0 192 142.90196871133375" height="142.90196871133375" width="192"><g><svg viewBox="0 0 192 142.90196871133375" height="142.90196871133375" width="192"><g transform="matrix(1,0,0,1,0,106.35344022041328)"><svg viewBox="0 0 192 36.548528490920475" height="36.548528490920475" width="192"><g id="textblocktransform"><svg viewBox="0 0 192 36.548528490920475" height="36.548528490920475" width="192" id="textblock"><g><svg viewBox="0 0 192 36.548528490920475" height="36.548528490920475" width="192"><g transform="matrix(1,0,0,1,0,0)"><svg width="192" viewBox="3.2200000286102295 -39.84000015258789 272.8999938964844 51.95000076293945" height="36.548528490920475" data-palette-color="#c80e02"><path d="M27.71-20.07L27.71-20.07Q27.61-19.7 27.34-19.02 27.08-18.33 26.73-17.47 26.39-16.6 25.98-15.64 25.56-14.67 25.17-13.75L25.17-13.75Q25-13.33 24.77-13.13 24.54-12.94 23.83-12.92L23.83-12.92 16.7-12.79 15.82-1.95Q15.8-1.73 15.7-1.53 15.6-1.32 15.41-1.2L15.41-1.2Q15.33-1.15 14.83-0.92 14.33-0.68 13.57-0.37 12.82-0.05 11.91 0.32 11.01 0.68 10.13 0.99 9.25 1.29 8.52 1.5 7.79 1.71 7.37 1.71L7.37 1.71Q6.88 1.71 6.48 1.53 6.08 1.34 6.08 0.78L6.08 0.78Q6.05-0.44 6.14-1.92 6.23-3.39 6.35-4.92 6.47-6.45 6.62-7.92 6.76-9.4 6.86-10.62L6.86-10.62 7.03-12.67Q4.98-12.67 4.1-12.78 3.22-12.89 3.22-13.35L3.22-13.35Q3.22-13.67 3.59-14.18L3.59-14.18Q4.1-14.89 4.75-15.89 5.4-16.89 5.99-17.85 6.59-18.8 7.04-19.53 7.5-20.26 7.62-20.43L7.62-20.43 8.08-27.15Q7.62-27.15 7.28-27.14 6.93-27.12 6.65-27.11 6.37-27.1 6.13-27.09 5.88-27.08 5.62-27.08L5.62-27.08Q4.44-27.08 3.94-27.21 3.44-27.34 3.44-27.71L3.44-27.71Q3.44-27.88 3.74-28.42 4.03-28.96 4.46-29.65 4.88-30.35 5.38-31.12 5.88-31.88 6.27-32.54L6.27-32.54 7.74-35.03 18.85-35.42Q21-35.5 23.12-35.58 25.24-35.67 27.04-35.74 28.83-35.82 30.13-35.88 31.42-35.94 31.93-35.96L31.93-35.96Q31.96-35.96 32.07-35.95 32.18-35.94 32.3-35.88 32.42-35.82 32.53-35.67 32.64-35.52 32.64-35.25L32.64-35.25Q32.64-35.11 32.3-34.28 31.96-33.45 31.32-31.81L31.32-31.81 30.25-28.98Q30.08-28.56 29.86-28.34 29.64-28.13 28.93-28.1L28.93-28.1Q28.1-28.08 27.25-28.03 26.39-27.98 25.49-27.93L25.49-27.93 18.07-27.56Q17.92-26.61 17.86-26.15 17.8-25.68 17.79-25.38 17.77-25.07 17.77-24.77 17.77-24.46 17.75-23.8L17.75-23.8Q17.72-23.34 17.69-23.02 17.65-22.71 17.61-22.4 17.58-22.09 17.54-21.75 17.5-21.41 17.48-20.9L17.48-20.9Q19.09-20.95 20.64-21 22.19-21.04 23.5-21.09 24.8-21.14 25.76-21.18 26.71-21.22 27.1-21.22L27.1-21.22Q27.29-21.22 27.54-21.07 27.78-20.92 27.78-20.51L27.78-20.51Q27.78-20.31 27.71-20.07ZM32.74-10.35L32.74-10.35Q33.05-13.7 33.37-16.97 33.69-20.24 33.93-23.68L33.93-23.68Q33.98-24.49 34.09-24.79 34.2-25.1 34.64-25.2L34.64-25.2Q36.72-25.61 38.99-26.06 41.26-26.51 43.38-27.22L43.38-27.22Q43.45-27.25 43.6-27.25L43.6-27.25Q43.87-27.25 43.87-27.05L43.87-27.05 41.67-3.27Q41.6-2.47 41.5-2.16 41.4-1.86 40.96-1.76L40.96-1.76Q38.89-1.12 36.77-0.34 34.64 0.44 32.27 1.25L32.27 1.25Q32.2 1.27 32.05 1.27L32.05 1.27Q31.78 1.27 31.78 1.03L31.78 1.03Q31.78 1 31.83 0.37 31.88-0.27 31.97-1.27 32.05-2.27 32.15-3.52 32.25-4.76 32.36-6.01 32.47-7.25 32.57-8.4 32.66-9.55 32.74-10.35ZM34.57-29.83L34.57-29.83Q34.64-30.88 34.68-31.45 34.71-32.01 34.74-32.29 34.76-32.57 34.76-32.64 34.76-32.71 34.78-32.75 34.79-32.79 34.8-32.9 34.81-33.01 34.84-33.36 34.86-33.72 34.91-34.4 34.96-35.08 35.06-36.28L35.06-36.28Q35.1-37.08 35.21-37.39 35.32-37.7 35.76-37.79L35.76-37.79Q37.84-38.21 40.11-38.66 42.38-39.11 44.5-39.82L44.5-39.82Q44.58-39.84 44.72-39.84L44.72-39.84Q44.8-39.7 44.92-39.65L44.92-39.65 44.99-39.6 44.46-32.91Q44.38-32.1 44.27-31.79 44.16-31.47 43.75-31.4L43.75-31.4Q41.67-31.01 39.55-30.54 37.42-30.08 35.06-29.61L35.06-29.61Q34.98-29.59 34.84-29.59L34.84-29.59Q34.57-29.59 34.57-29.83ZM68.53-27.44L67.01-19.87Q66.5-19.92 65.86-19.98 65.23-20.04 64.52-20.04L64.52-20.04Q63.45-20.04 62.34-19.86 61.23-19.68 60.27-19.14 59.32-18.6 58.64-17.66 57.95-16.72 57.76-15.23L57.76-15.23Q57.59-13.43 57.48-12.27 57.37-11.11 57.32-10.36 57.27-9.62 57.23-9.17 57.2-8.72 57.17-8.33L57.17-8.33Q57.17-8.23 57.14-7.79 57.1-7.35 57.03-6.76 56.95-6.18 56.89-5.49 56.83-4.81 56.76-4.22 56.68-3.64 56.65-3.2 56.61-2.76 56.61-2.66L56.61-2.66Q56.61-2.47 56.62-2.33 56.64-2.2 56.64-2.08L56.64-2.08Q56.64-1.88 56.45-1.75 56.27-1.61 55.63-1.44L55.63-1.44 49.16 0.88Q48.9 0.98 48.46 1.12 48.02 1.27 47.6 1.27L47.6 1.27Q47.26 1.27 47 1.1 46.75 0.93 46.75 0.51L46.75 0.51 48.85-23.68Q48.92-24.49 49.03-24.79 49.14-25.1 49.58-25.2L49.58-25.2Q51.8-25.63 54.17-26.09 56.54-26.54 58.76-27.25L58.76-27.25Q58.95-27.25 58.99-27.19 59.03-27.12 59.03-27L59.03-27Q59.03-26.95 59.02-26.86 59-26.76 58.94-26.42 58.88-26.07 58.77-25.38 58.66-24.68 58.47-23.44L58.47-23.44Q59.59-24.32 60.94-25.05 62.3-25.78 63.67-26.31 65.03-26.83 66.3-27.14 67.57-27.44 68.53-27.44L68.53-27.44ZM83.15-27.25L83.15-27.25Q85.47-27.25 87.36-26.38 89.25-25.51 90.61-24.13 91.96-22.75 92.69-21.04 93.43-19.34 93.43-17.63L93.43-17.63Q93.43-16.11 92.5-14.59 91.57-13.06 89.9-11.84 88.22-10.62 85.88-9.86 83.54-9.11 80.73-9.11L80.73-9.11Q79.26-9.11 77.65-9.4L77.65-9.4Q77.75-8.35 78.26-7.59 78.78-6.84 79.56-6.35 80.34-5.86 81.33-5.63 82.32-5.4 83.37-5.4L83.37-5.4Q84.54-5.4 85.62-5.6 86.71-5.81 87.71-6.15 88.71-6.49 89.64-6.91 90.57-7.32 91.4-7.74L91.4-7.74Q91.62-7.79 91.78-7.82 91.94-7.86 92.08-7.86L92.08-7.86Q92.08-7.86 92.07-7.47 92.06-7.08 92.06-6.37 92.06-5.66 92.05-4.66 92.03-3.66 92.01-2.44L92.01-2.44Q92.08-2.32 92.11-2.2 92.13-2.08 92.13-2L92.13-2Q92.13-1.71 91.59-1.37 91.06-1.03 90.19-0.66 89.32-0.29 88.21 0.05 87.1 0.39 85.95 0.67 84.81 0.95 83.73 1.11 82.66 1.27 81.85 1.27L81.85 1.27Q79.22 1.27 76.74 0.35 74.26-0.56 72.34-2.27 70.43-3.98 69.28-6.42 68.13-8.86 68.13-11.91L68.13-11.91Q68.13-15.11 69.23-17.91 70.33-20.7 72.32-22.78 74.31-24.85 77.07-26.05 79.83-27.25 83.15-27.25ZM82.85-20.75L82.85-20.75Q81.85-20.75 81.01-20.32 80.17-19.9 79.47-19.1 78.78-18.31 78.26-17.2 77.75-16.09 77.43-14.75L77.43-14.75Q79.95-15.19 81.61-15.67 83.27-16.16 84.27-16.66 85.27-17.16 85.69-17.66 86.1-18.16 86.1-18.63L86.1-18.63Q86.1-19.07 85.77-19.46 85.44-19.85 84.95-20.14 84.47-20.43 83.89-20.59 83.32-20.75 82.85-20.75ZM108.56-0.37L108.14-9.08Q108.14-9.11 108.13-9.13 108.12-9.16 108.12-9.18L108.12-9.18Q108.12-9.59 108.56-9.59L108.56-9.59Q108.78-9.59 109.05-9.38L109.05-9.38Q110.36-8.13 111.97-7.4 113.59-6.67 115.49-6.67L115.49-6.67Q116-6.67 116.66-6.77 117.32-6.88 117.91-7.14 118.49-7.4 118.9-7.81 119.3-8.23 119.3-8.86L119.3-8.86Q119.3-9.57 118.96-10.13 118.62-10.69 118.05-11.08L118.05-11.08Q117.83-11.23 117.39-11.57 116.96-11.91 116.39-12.35 115.83-12.79 115.22-13.29 114.61-13.79 114.06-14.25 113.51-14.7 113.07-15.06 112.63-15.43 112.41-15.63L112.41-15.63Q110.97-16.7 110.13-17.8 109.29-18.9 108.85-20.09 108.41-21.29 108.29-22.57 108.17-23.85 108.17-25.29L108.17-25.29Q108.17-27.44 109.19-29.37 110.22-31.3 112.08-32.73 113.95-34.16 116.56-35 119.18-35.84 122.38-35.84L122.38-35.84Q122.77-35.84 123.55-35.75 124.33-35.67 125.27-35.47 126.21-35.28 127.18-34.94 128.16-34.59 128.97-34.06L128.97-34.06Q129.24-33.86 129.39-33.67 129.55-33.47 129.6-33.06L129.6-33.06Q129.72-31.08 129.8-29.16 129.87-27.25 129.99-25.1L129.99-25.1Q129.99-24.68 129.82-24.55 129.65-24.41 129.38-24.41L129.38-24.41Q129.11-24.41 128.97-24.56L128.97-24.56Q128.26-25.27 127.5-25.95 126.75-26.64 125.92-27.16 125.09-27.69 124.15-28 123.21-28.32 122.11-28.32L122.11-28.32Q121.45-28.32 120.79-28.21 120.13-28.1 119.59-27.81 119.05-27.51 118.73-27 118.4-26.49 118.4-25.71L118.4-25.71Q118.4-24.88 118.6-24.27 118.81-23.66 119.64-23.12L119.64-23.12 125.5-19.14Q127.11-17.99 128.11-16.86 129.11-15.72 129.68-14.6 130.24-13.48 130.44-12.39 130.65-11.3 130.65-10.25L130.65-10.25Q130.65-8.54 130.09-7.03 129.53-5.52 128.55-4.24 127.58-2.95 126.27-1.94 124.96-0.93 123.47-0.21 121.98 0.51 120.39 0.89 118.79 1.27 117.25 1.27L117.25 1.27Q116.05 1.27 114.89 1.23 113.73 1.2 112.63 1.04 111.54 0.88 110.51 0.55 109.48 0.22 108.56-0.37L108.56-0.37ZM144.69-17.41L144.61-17.04Q144.47-14.7 144.36-13.23 144.25-11.77 144.17-10.85 144.1-9.94 144.05-9.41 144-8.89 143.98-8.42L143.98-8.42Q144.54-6.96 145.64-6.04 146.74-5.13 148.28-5.13L148.28-5.13Q149.62-5.13 150.63-5.97 151.65-6.81 152.32-8.15 152.99-9.5 153.33-11.16 153.67-12.82 153.67-14.45L153.67-14.45Q153.67-15.8 153.44-16.94 153.21-18.09 152.74-18.93 152.28-19.78 151.58-20.25 150.89-20.73 149.94-20.73L149.94-20.73Q149.15-20.73 148.39-20.42 147.62-20.12 146.91-19.64 146.2-19.17 145.63-18.57 145.05-17.97 144.69-17.41L144.69-17.41ZM145.1-24.19L145.1-24.19Q147.15-25.59 149.4-26.42 151.65-27.25 154.09-27.25L154.09-27.25Q156.38-27.25 158.05-26.31 159.73-25.37 160.82-23.77 161.92-22.17 162.45-20.09 162.97-18.02 162.97-15.75L162.97-15.75Q162.97-13.77 162.58-11.74 162.19-9.72 161.44-7.82 160.68-5.93 159.56-4.27 158.43-2.61 156.98-1.38 155.53-0.15 153.74 0.56 151.96 1.27 149.89 1.27L149.89 1.27Q148.06 1.27 146.38 0.54 144.71-0.2 143.25-1.37L143.25-1.37Q143.25-1.25 143.19-0.48 143.12 0.29 143.03 1.39 142.93 2.49 142.81 3.75 142.69 5 142.59 6.1 142.49 7.2 142.43 7.97 142.37 8.74 142.37 8.86L142.37 8.86Q142.37 9.06 142.38 9.19 142.39 9.33 142.39 9.45L142.39 9.45Q142.39 9.64 142.21 9.78 142.03 9.91 141.39 10.08L141.39 10.08 134.97 11.72Q134.7 11.79 134.26 11.95 133.82 12.11 133.41 12.11L133.41 12.11Q133.07 12.11 132.81 11.94 132.55 11.77 132.55 11.3L132.55 11.3 135.53-24.44Q135.61-25.24 135.71-25.55 135.82-25.85 136.26-25.95L136.26-25.95Q138.49-26.39 140.83-26.84 143.17-27.29 145.4-28L145.4-28Q145.59-28 145.63-27.94 145.66-27.88 145.66-27.76L145.66-27.76Q145.66-27.71 145.65-27.61 145.64-27.51 145.58-27.17 145.52-26.83 145.41-26.14 145.3-25.44 145.1-24.19ZM187.53-27.44L186.02-19.87Q185.5-19.92 184.87-19.98 184.24-20.04 183.53-20.04L183.53-20.04Q182.45-20.04 181.34-19.86 180.23-19.68 179.28-19.14 178.33-18.6 177.64-17.66 176.96-16.72 176.76-15.23L176.76-15.23Q176.59-13.43 176.48-12.27 176.37-11.11 176.33-10.36 176.28-9.62 176.24-9.17 176.2-8.72 176.18-8.33L176.18-8.33Q176.18-8.23 176.14-7.79 176.11-7.35 176.03-6.76 175.96-6.18 175.9-5.49 175.84-4.81 175.76-4.22 175.69-3.64 175.65-3.2 175.62-2.76 175.62-2.66L175.62-2.66Q175.62-2.47 175.63-2.33 175.64-2.2 175.64-2.08L175.64-2.08Q175.64-1.88 175.46-1.75 175.28-1.61 174.64-1.44L174.64-1.44 168.17 0.88Q167.9 0.98 167.46 1.12 167.02 1.27 166.61 1.27L166.61 1.27Q166.27 1.27 166.01 1.1 165.75 0.93 165.75 0.51L165.75 0.51 167.85-23.68Q167.93-24.49 168.04-24.79 168.15-25.1 168.59-25.2L168.59-25.2Q170.81-25.63 173.18-26.09 175.54-26.54 177.77-27.25L177.77-27.25Q177.96-27.25 178-27.19 178.03-27.12 178.03-27L178.03-27Q178.03-26.95 178.02-26.86 178.01-26.76 177.95-26.42 177.89-26.07 177.78-25.38 177.67-24.68 177.47-23.44L177.47-23.44Q178.6-24.32 179.95-25.05 181.31-25.78 182.67-26.31 184.04-26.83 185.31-27.14 186.58-27.44 187.53-27.44L187.53-27.44ZM202.15-27.25L202.15-27.25Q204.47-27.25 206.36-26.38 208.26-25.51 209.61-24.13 210.97-22.75 211.7-21.04 212.43-19.34 212.43-17.63L212.43-17.63Q212.43-16.11 211.5-14.59 210.58-13.06 208.9-11.84 207.23-10.62 204.89-9.86 202.54-9.11 199.74-9.11L199.74-9.11Q198.27-9.11 196.66-9.4L196.66-9.4Q196.76-8.35 197.27-7.59 197.78-6.84 198.56-6.35 199.35-5.86 200.33-5.63 201.32-5.4 202.37-5.4L202.37-5.4Q203.54-5.4 204.63-5.6 205.72-5.81 206.72-6.15 207.72-6.49 208.65-6.91 209.57-7.32 210.4-7.74L210.4-7.74Q210.62-7.79 210.78-7.82 210.94-7.86 211.09-7.86L211.09-7.86Q211.09-7.86 211.08-7.47 211.06-7.08 211.06-6.37 211.06-5.66 211.05-4.66 211.04-3.66 211.02-2.44L211.02-2.44Q211.09-2.32 211.11-2.2 211.14-2.08 211.14-2L211.14-2Q211.14-1.71 210.6-1.37 210.06-1.03 209.2-0.66 208.33-0.29 207.22 0.05 206.11 0.39 204.96 0.67 203.81 0.95 202.74 1.11 201.66 1.27 200.86 1.27L200.86 1.27Q198.22 1.27 195.74 0.35 193.27-0.56 191.35-2.27 189.43-3.98 188.29-6.42 187.14-8.86 187.14-11.91L187.14-11.91Q187.14-15.11 188.24-17.91 189.34-20.7 191.33-22.78 193.31-24.85 196.07-26.05 198.83-27.25 202.15-27.25ZM201.86-20.75L201.86-20.75Q200.86-20.75 200.02-20.32 199.17-19.9 198.48-19.1 197.78-18.31 197.27-17.2 196.76-16.09 196.44-14.75L196.44-14.75Q198.95-15.19 200.61-15.67 202.27-16.16 203.28-16.66 204.28-17.16 204.69-17.66 205.11-18.16 205.11-18.63L205.11-18.63Q205.11-19.07 204.78-19.46 204.45-19.85 203.96-20.14 203.47-20.43 202.9-20.59 202.32-20.75 201.86-20.75ZM242.92-27.66L240.41-4.91Q240.38-4.81 240.38-4.72 240.38-4.64 240.38-4.57L240.38-4.57Q240.38-3.96 240.58-3.55 240.77-3.15 241.01-2.89 241.24-2.64 241.43-2.48 241.63-2.32 241.63-2.2L241.63-2.2Q241.63-1.86 240.9-1.56L240.9-1.56 234.33 1.25Q234.3 1.27 234.16 1.27L234.16 1.27Q233.96 1.27 233.77 0.93 233.57 0.59 233.39 0.06 233.21-0.46 233.05-1.06 232.89-1.66 232.77-2.17L232.77-2.17Q231.23-0.39 229.45 0.44 227.66 1.27 225.91 1.27L225.91 1.27Q223.85 1.27 221.9 0.37 219.95-0.54 218.43-2.21 216.92-3.88 216.01-6.25 215.09-8.62 215.09-11.57L215.09-11.57Q215.09-15.06 216.1-17.94 217.12-20.83 218.85-22.9 220.58-24.98 222.89-26.11 225.2-27.25 227.79-27.25L227.79-27.25Q229.62-27.25 231.25-26.5 232.89-25.76 234.35-24.58L234.35-24.58Q234.5-25.32 234.52-25.76 234.55-26.2 234.63-26.44 234.72-26.68 234.96-26.77 235.21-26.86 235.77-26.9L235.77-26.9Q237.53-27.15 239.27-27.36 241.02-27.56 242.92-27.66L242.92-27.66ZM232.08-6.88L233.11-14.11Q233.35-15.5 233.44-16.74 233.52-17.97 233.57-18.99L233.57-18.99Q233.18-19.29 232.73-19.6 232.28-19.92 231.75-20.2 231.23-20.48 230.65-20.65 230.08-20.83 229.45-20.83L229.45-20.83Q228.13-20.83 227.24-19.97 226.34-19.12 225.8-17.87 225.25-16.63 225.01-15.23 224.78-13.84 224.78-12.77L224.78-12.77Q224.78-8.91 225.8-7.12 226.81-5.32 228.62-5.32L228.62-5.32Q229.35-5.32 230.25-5.74 231.15-6.15 232.08-6.88L232.08-6.88ZM263.92-8.33L264.43-13.89Q264.5-14.67 264.59-15.53 264.67-16.38 264.79-17.31L264.79-17.31Q264.23-18.77 263.21-19.69 262.18-20.61 260.64-20.61L260.64-20.61Q259.13-20.61 258.08-19.74 257.03-18.87 256.4-17.6 255.76-16.33 255.48-14.93 255.2-13.53 255.2-12.45L255.2-12.45Q255.2-11.13 255.36-9.84 255.52-8.54 255.87-7.5 256.23-6.45 256.81-5.8 257.4-5.15 258.28-5.15L258.28-5.15Q260.42-5.22 261.77-6.13 263.11-7.03 263.92-8.33L263.92-8.33ZM276.1-36.84L272.95-2.47Q272.95-2.42 272.94-2.36 272.92-2.29 272.92-2.25L272.92-2.25Q272.92-2.12 272.94-2.05 272.95-1.98 272.95-1.9L272.95-1.9Q272.95-1.68 272.79-1.55 272.63-1.42 271.97-1.25L271.97-1.25 265.43 0.88Q265.16 0.98 264.72 1.12 264.28 1.27 263.87 1.27L263.87 1.27Q263.52 1.27 263.27 1.1 263.01 0.93 263.01 0.46L263.01 0.46Q263.01 0.02 263.02-0.24 263.04-0.51 263.05-0.74 263.06-0.98 263.1-1.25 263.13-1.51 263.18-1.95L263.18-1.95Q261.35-0.49 259.41 0.39 257.47 1.27 255.32 1.27L255.32 1.27Q252.98 1.27 251.16 0.16 249.34-0.95 248.1-2.82 246.85-4.69 246.2-7.09 245.56-9.5 245.56-12.11L245.56-12.11Q245.56-15.5 246.67-18.3 247.78-21.09 249.68-23.08 251.59-25.07 254.13-26.16 256.66-27.25 259.52-27.25L259.52-27.25Q261.06-27.25 262.46-26.44 263.87-25.63 265.11-24.37L265.11-24.37Q265.18-25.56 265.28-26.97 265.38-28.37 265.48-29.82 265.58-31.27 265.67-32.69 265.77-34.11 265.84-35.28L265.84-35.28Q265.84-35.5 266-35.63 266.16-35.77 266.82-35.94L266.82-35.94 273.68-37.57Q273.95-37.62 274.39-37.79 274.83-37.96 275.24-37.96L275.24-37.96Q275.56-37.96 275.84-37.82 276.12-37.67 276.12-37.26L276.12-37.26Q276.12-37.21 276.11-37.05 276.1-36.89 276.1-36.84L276.1-36.84Z" opacity="1" transform="matrix(1,0,0,1,0,0)" fill="#c80e02" class="undefined-text-0" data-fill-palette-color="primary" id="text-0"></path></svg></g></svg></g></svg></g></svg></g><g transform="matrix(1,0,0,1,55.499696992285116,0)"><svg viewBox="0 0 81.00060601542977 101.0201327489042" height="101.0201327489042" width="81.00060601542977"><g><svg xmlns="http://www.w3.org/2000/svg" xmlns:xlink="http://www.w3.org/1999/xlink" version="1.1" x="0" y="0" viewBox="14.845001220703125 5.999999046325684 70.15499877929688 87.49400329589844" enable-background="new 0 0 100 100" xml:space="preserve" height="101.0201327489042" width="81.00060601542977" class="icon-icon-0" data-fill-palette-color="accent" id="icon-0"><g fill="#c80e02" data-fill-palette-color="accent"><g fill="#c80e02" data-fill-palette-color="accent"><path fill="#c80e02" d="M62.185 23.744c1.835-1.465 2.537-3.184 2.537-5.069 0-1.408-1.557-3.353-2.537-5.071-1.264-2.322 0.292-5.491 0-7.604-2.919 2.429-5.074 4.965-5.074 7.604 0 1.408 0.987 3.407 2.538 5.071C61.421 20.727 61.906 23.039 62.185 23.744z" data-fill-palette-color="accent"></path><path fill="#c80e02" d="M62.321 84.139c6.627-3.802 11.682-10.444 12.541-19.83 0.904-9.937 9.85-15.34 10.138-15.213-9.524-4.393-15.214 2.852-15.214 2.535 0-1.247 5.349-17.807-5.064-22.814-11.995-5.77-15.312-10.373-15.211-17.747-0.009 0.298-7.256 11.978-2.536 17.747 7.326 8.932 4.234 15.847 0 15.211-7.11-1.066-6.252-10.338-5.072-12.676-3.716-0.392-8.015 1.919-10.141 5.069-6.396 9.502 7.468 18.594 2.538 25.352-3.752 5.148-10.162-4.99-10.141-5.069-2.656 13.861 2.349 23.003 10.115 27.633-11.516 0.793-19.429 2.432-19.429 4.324 0 2.669 15.705 4.833 35.077 4.833C69.296 93.493 85 91.329 85 88.66 85 86.593 75.573 84.829 62.321 84.139zM41.902 66.845c2.264-4.082 7.996-4.89 5.072-10.142 0.038 0.079 6.218 1.008 10.136 5.069 6.012 6.205 5.329 17.357-5.063 17.751C38.755 80.011 40.121 70.053 41.902 66.845z" data-fill-palette-color="accent"></path></g></g></svg></g></svg></g><g></g></svg></g></svg></g></svg></g></svg></g><defs></defs></svg><rect width="320" height="360" fill="none" stroke="none" visibility="hidden"></rect></g></svg></g></svg>